<?xml version="1.0" encoding="utf-8"?>
<!-- Generator: Adobe Illustrator 23.0.4, SVG Export Plug-In . SVG Version: 6.00 Build 0) -->
<svg version="1.1" id="Layer_2" xmlns="http://www.w3.org/2000/svg" xmlns:xlink="http://www.w3.org/1999/xlink" x="0px" y="0px" viewBox="0 0 100 100" style="enable-background:new 0 0 100 100;" xml:space="preserve">
	<path d="M24.4,20.6C24.3,20.6,24.3,20.6,24.4,20.6c-0.1,0-0.1,0-0.2,0c-7.8,0-6.2,8.4-6.3,9.4c0,0.5-0.3,0.7-0.6,0.7
	c-0.3,0-0.5-0.1-0.5-0.1c0,3.2,5.8,3.4,7.2,3.4c0.2,0,0.3,0,0.3,0h0c0,0,0.1,0,0.3,0c1.4,0,7.2-0.2,7.2-3.4c0,0-0.2,0.1-0.5,0.1
	c-0.3,0-0.6-0.1-0.6-0.7C30.6,29,32.2,20.6,24.4,20.6 M74.6,21.6c-3.1,0-5.6,2.5-5.6,5.6c0,3.1,2.5,5.6,5.6,5.6
	c3.1,0,5.6-2.5,5.6-5.6C80.2,24.2,77.7,21.6,74.6,21.6 M77.6,34.9h-6c-0.3,0-0.5,0-0.8,0.1c-0.2-0.1-0.4-0.1-0.7-0.1
	c-1.1,0-2.1,0.6-2.6,1.6L64,43.3c-0.1,0.1-0.2,0.2-0.2,0.3l-4.5,8.6c-0.2,0.4-0.3,0.8-0.3,1.2l-3.4,1.1c-0.1,0-0.1,0.1-0.2,0.1
	l-3.6,1.2c-0.2,0-0.4-0.1-0.6-0.1h-3.8c0,0-0.1,0-0.1,0L44,54.6c-0.1,0-0.1-0.1-0.2-0.1l-3.9-1.3c0-0.3-0.1-0.7-0.3-1l-4.5-8.6
	c-0.1-0.1-0.1-0.2-0.2-0.3l-3.6-6.9c-0.5-1-1.5-1.6-2.6-1.6c-0.2,0-0.4,0-0.7,0.1c-0.3-0.1-0.5-0.1-0.8-0.1h-6c-0.3,0-0.5,0-0.8,0.1
	c-0.2-0.1-0.4-0.1-0.7-0.1c-1.1,0-2.1,0.6-2.6,1.6l-3.6,6.9c-0.1,0.1-0.2,0.2-0.2,0.3L9,52.2c-0.7,1.4-0.2,3.2,1.3,3.9
	c0.4,0.2,0.9,0.3,1.3,0.3c1.1,0,2.1-0.6,2.6-1.6l3.4-6.6v0.2l-4.4,16.1l0,0.1c0,0.1,0,0.3,0,0.4c0,1.3,1,2.3,2.3,2.3h2.2l0,8.9
	c0,1.7,1.3,3.1,3,3.1c0,0,0,0,0,0c1.7,0,3.1-1.4,3.1-3l0-9h0.5h0h0.5l0,8.9c0,1.7,1.3,3.1,3,3.1c0,0,0,0,0,0c1.7,0,3.1-1.4,3.1-3
	l0-9h2.2c1.3,0,2.3-1,2.3-2.3c0-0.2,0-0.3,0-0.4l0-0.1l-4.4-16.1v-0.2l3.4,6.6c0.5,1,1.5,1.6,2.6,1.6c0.4,0,0.9-0.1,1.3-0.3
	c0,0,0.1,0,0.1-0.1l3.4,1.1c0.1,0,0.1,0.1,0.2,0.1l3.1,1v9.3c0,0.6,0.2,1.1,0.6,1.6l0,2.5c0,0.1,0,0.2,0,0.3c0,0.1,0,0.2,0,0.2
	l0,5.6c0,0.9,0.7,1.7,1.7,1.7c0,0,0,0,0,0c0.9,0,1.7-0.7,1.7-1.7l0-5.6c0-0.1,0-0.2,0-0.3c0-0.1,0-0.2,0-0.2V70h0.6l0,1.7
	c0,0.1,0,0.2,0,0.3c0,0.1,0,0.2,0,0.2l0,5.6c0,0.9,0.7,1.7,1.7,1.7c0,0,0,0,0,0c0.9,0,1.7-0.7,1.7-1.7l0-5.6c0-0.1,0-0.2,0-0.3
	c0-0.1,0-0.2,0-0.2l0-2.5c0.4-0.4,0.6-1,0.6-1.6v-9.1l3.8-1.2c0.1,0,0.1-0.1,0.2-0.1l3.1-1c0.4,0.2,0.8,0.3,1.2,0.3
	c1.1,0,2.1-0.6,2.6-1.6l3.4-6.6v5.3c0,0.2,0,0.4,0.1,0.7c0,0.2-0.1,0.4-0.1,0.6l0,10.2c0,0.2,0,0.4,0.1,0.6c0,0.1,0,0.3-0.1,0.5
	l0,10.2c0,1.7,1.3,3.1,3,3.1c0,0,0,0,0,0c1.7,0,3.1-1.4,3.1-3l0-10.2c0-0.2,0-0.4-0.1-0.6c0-0.1,0-0.3,0.1-0.5l0-7.8h1.1l0,7.8
	c0,0.2,0,0.4,0.1,0.6c0,0.1,0,0.3-0.1,0.5l0,10.2c0,1.7,1.3,3.1,3,3.1c0,0,0,0,0,0c1.7,0,3.1-1.4,3.1-3l0-10.2c0-0.2,0-0.4-0.1-0.6
	c0-0.1,0-0.3,0-0.5l0-10.2c0-0.2,0-0.4-0.1-0.7c0-0.2,0.1-0.4,0.1-0.7v-5.3l3.4,6.6c0.5,1,1.5,1.6,2.6,1.6c0.4,0,0.9-0.1,1.3-0.3
	c1.4-0.7,2-2.5,1.3-3.9l-4.5-8.6c-0.1-0.1-0.1-0.2-0.2-0.3l-3.6-6.9c-0.5-1-1.5-1.6-2.6-1.6c-0.2,0-0.4,0-0.7,0.1
	C78.2,34.9,77.9,34.9,77.6,34.9 M49.4,45.3c-2.5,0-4.4,2-4.4,4.4c0,2.5,2,4.4,4.4,4.4c2.5,0,4.4-2,4.4-4.4
	C53.8,47.3,51.8,45.3,49.4,45.3" />
</svg>
