<?xml version="1.0" encoding="utf-8"?>
<!-- Generator: Adobe Illustrator 23.0.4, SVG Export Plug-In . SVG Version: 6.00 Build 0) -->
<svg version="1.1" id="Layer_1" xmlns="http://www.w3.org/2000/svg" xmlns:xlink="http://www.w3.org/1999/xlink" x="0px" y="0px" viewBox="0 0 100 100" style="enable-background:new 0 0 100 100;" xml:space="preserve">
	<path d="M24.4,20.6c7.8,0,6.2,8.4,6.3,9.4c0,0.5,0.3,0.7,0.6,0.7c0.3,0,0.5-0.1,0.5-0.1c0,3.2-5.8,3.4-7.2,3.4c-0.2,0-0.3,0-0.3,0h0
	c0,0-0.1,0-0.3,0c-1.4,0-7.2-0.2-7.2-3.4c0,0,0.2,0.1,0.5,0.1c0.3,0,0.6-0.1,0.6-0.7c0.1-1-1.5-9.4,6.3-9.4
	C24.2,20.6,24.2,20.6,24.4,20.6C24.3,20.6,24.3,20.6,24.4,20.6 M74.6,21.6c3.1,0,5.6,2.5,5.6,5.6c0,3.1-2.5,5.6-5.6,5.6
	c-3.1,0-5.6-2.5-5.6-5.6C69,24.2,71.6,21.6,74.6,21.6 M77.6,34.9c0.3,0,0.5,0,0.8,0.1c0.2-0.1,0.4-0.1,0.7-0.1
	c1.1,0,2.1,0.6,2.6,1.6l3.6,6.9c0.1,0.1,0.2,0.2,0.2,0.3l4.5,8.6c0.7,1.4,0.2,3.2-1.3,3.9c-0.4,0.2-0.9,0.3-1.3,0.3
	c-1.1,0-2.1-0.6-2.6-1.6l-3.4-6.6v5.3c0,0.2,0,0.4-0.1,0.7c0,0.2,0.1,0.4,0.1,0.7l0,10.2c0,0.2,0,0.3,0,0.5c0,0.2,0.1,0.4,0.1,0.6
	l0,10.2c0,1.7-1.4,3-3.1,3c0,0,0,0,0,0c-1.7,0-3.1-1.4-3-3.1l0-10.2c0-0.2,0-0.3,0.1-0.5c0-0.2-0.1-0.4-0.1-0.6l0-7.8h-1.1l0,7.8
	c0,0.2,0,0.3-0.1,0.5c0,0.2,0.1,0.4,0.1,0.6l0,10.2c0,1.7-1.4,3-3.1,3c0,0,0,0,0,0c-1.7,0-3.1-1.4-3-3.1l0-10.2c0-0.2,0-0.3,0.1-0.5
	c0-0.2-0.1-0.4-0.1-0.6l0-10.2c0-0.2,0-0.4,0.1-0.6c0-0.2-0.1-0.4-0.1-0.7v-5.3l-3.4,6.6c-0.5,1-1.5,1.6-2.6,1.6
	c-0.4,0-0.8-0.1-1.2-0.3l-3.1,1c-0.1,0-0.1,0.1-0.2,0.1l-3.8,1.2v9.1c0,0.6-0.2,1.1-0.6,1.6l0,2.5c0,0.1,0,0.2,0,0.2
	c0,0.1,0,0.2,0,0.3l0,5.6c0,0.9-0.8,1.7-1.7,1.7c0,0,0,0,0,0c-0.9,0-1.7-0.8-1.7-1.7l0-5.6c0-0.1,0-0.2,0-0.2c0-0.1,0-0.2,0-0.3
	l0-1.7h-0.6v1.7c0,0.1,0,0.2,0,0.2c0,0.1,0,0.2,0,0.3l0,5.6c0,0.9-0.8,1.7-1.7,1.7c0,0,0,0,0,0c-0.9,0-1.7-0.8-1.7-1.7l0-5.6
	c0-0.1,0-0.2,0-0.2c0-0.1,0-0.2,0-0.3l0-2.5c-0.4-0.4-0.6-1-0.6-1.6v-9.3l-3.1-1c-0.1,0-0.1-0.1-0.2-0.1l-3.4-1.1c0,0-0.1,0-0.1,0.1
	c-0.4,0.2-0.9,0.3-1.3,0.3c-1.1,0-2.1-0.6-2.6-1.6l-3.4-6.6v0.2l4.4,16.1l0,0.1c0,0.1,0,0.3,0,0.4c0,1.3-1,2.3-2.3,2.3h-2.2l0,9
	c0,1.7-1.4,3-3.1,3c0,0,0,0,0,0c-1.7,0-3.1-1.4-3-3.1l0-8.9h-0.5h0h-0.5l0,9c0,1.7-1.4,3-3.1,3c0,0,0,0,0,0c-1.7,0-3.1-1.4-3-3.1
	l0-8.9h-2.2c-1.3,0-2.3-1-2.3-2.3c0-0.2,0-0.3,0-0.4l0-0.1l4.4-16.1v-0.2l-3.4,6.6c-0.5,1-1.5,1.6-2.6,1.6c-0.4,0-0.9-0.1-1.3-0.3
	c-1.4-0.7-2-2.5-1.3-3.9l4.5-8.6c0.1-0.1,0.1-0.2,0.2-0.3l3.6-6.9c0.5-1,1.5-1.6,2.6-1.6c0.2,0,0.4,0,0.7,0.1
	c0.3-0.1,0.5-0.1,0.8-0.1h6c0.3,0,0.5,0,0.8,0.1c0.2-0.1,0.4-0.1,0.7-0.1c1.1,0,2.1,0.6,2.6,1.6l3.6,6.9c0.1,0.1,0.2,0.2,0.2,0.3
	l4.5,8.6c0.2,0.3,0.3,0.7,0.3,1l3.9,1.3c0.1,0,0.1,0.1,0.2,0.1l3.4,1.1c0,0,0.1,0,0.1,0h3.8c0.2,0,0.4,0,0.6,0.1l3.6-1.2
	c0.1,0,0.1-0.1,0.2-0.1l3.4-1.1c0-0.4,0.1-0.8,0.3-1.2l4.5-8.6c0.1-0.1,0.1-0.2,0.2-0.3l3.6-6.9c0.5-1,1.5-1.6,2.6-1.6
	c0.2,0,0.4,0,0.7,0.1c0.3-0.1,0.5-0.1,0.8-0.1L77.6,34.9 M49.4,45.3c2.5,0,4.4,2,4.4,4.4c0,2.5-2,4.4-4.4,4.4c-2.5,0-4.4-2-4.4-4.4
	C44.9,47.3,46.9,45.3,49.4,45.3 M24.2,17.8c-2.8,0-5.1,0.9-6.7,2.6c-2.3,2.5-2.5,5.9-2.4,8c-0.6,0.5-1,1.3-1,2.1
	c0,1.4,0.5,2.6,1.5,3.6c-0.3,0.3-0.5,0.7-0.7,1.1l-3.5,6.7c-0.1,0.1-0.2,0.3-0.3,0.5L6.6,51c-0.7,1.4-0.8,2.9-0.4,4.3
	c0.5,1.4,1.5,2.6,2.8,3.3c0.8,0.4,1.7,0.6,2.6,0.6c0.1,0,0.2,0,0.3,0l-1.3,4.6l0,0.1c0,0.1,0,0.1,0,0.2c-0.1,0.3-0.1,0.7-0.1,1
	c0,2.6,1.9,4.7,4.4,5l0,6.2c0,3.2,2.6,5.8,5.8,5.9c0,0,0,0,0.1,0c1.4,0,2.6-0.5,3.6-1.2c1,0.8,2.2,1.2,3.6,1.2c0,0,0,0,0.1,0
	c3.2,0,5.8-2.6,5.8-5.8l0-6.3c2.5-0.3,4.4-2.4,4.4-5c0-0.3,0-0.7-0.1-1c0-0.1,0-0.1,0-0.2l0-0.1l-1.3-4.7c0.1,0,0.2,0,0.2,0
	c0.5,0,1-0.1,1.5-0.2l2.3,0.8c0.1,0,0.2,0.1,0.4,0.1l1.2,0.4v7.3c0,0.8,0.2,1.7,0.6,2.4l0,1.6c0,0.1,0,0.2,0,0.3c0,0.1,0,0.2,0,0.2
	l0,5.6c0,2.4,1.9,4.4,4.4,4.4c0.7,0,1.4-0.2,2-0.5c0.6,0.3,1.3,0.5,1.9,0.5c2.5,0,4.4-2,4.5-4.4l0-5.6c0-0.1,0-0.2,0-0.3
	c0-0.1,0-0.2,0-0.2l0-1.6c0.4-0.7,0.6-1.6,0.6-2.4v-7.1l1.9-0.6c0.1,0,0.3-0.1,0.4-0.1l2.1-0.7c0.4,0.1,0.8,0.1,1.2,0.1
	c1.2,0,2.3-0.4,3.3-1l0,6.9c0,0.2,0,0.4,0,0.6c0,0.1,0,0.3,0,0.4l0,10.2c0,1.5,0.6,3,1.7,4.1c1.1,1.1,2.5,1.7,4.1,1.7c0,0,0,0,0.1,0
	c1.4,0,2.6-0.5,3.6-1.3c1,0.8,2.2,1.2,3.6,1.3c0,0,0,0,0.1,0c3.2,0,5.8-2.6,5.8-5.8l0-10.2c0-0.2,0-0.4,0-0.6c0-0.1,0-0.3,0-0.4l0-7
	c0.9,0.7,2.1,1,3.3,1c0.9,0,1.8-0.2,2.6-0.6c1.3-0.7,2.3-1.9,2.8-3.3c0.5-1.4,0.3-3-0.3-4.3l-4.5-8.6c-0.1-0.2-0.2-0.4-0.3-0.5
	l-3.5-6.7c-0.6-1.3-1.7-2.2-3-2.7c1.2-1.4,1.9-3.3,1.9-5.3c0-4.6-3.7-8.4-8.4-8.4s-8.4,3.7-8.4,8.4c0,2,0.7,3.8,1.9,5.3
	c-1.3,0.5-2.4,1.4-3,2.7l-3.5,6.7c-0.1,0.1-0.2,0.3-0.3,0.5L56.9,51c0,0.1-0.1,0.2-0.1,0.3l-0.4,0.1c0.1-0.5,0.2-1.1,0.2-1.6
	c0-4-3.2-7.2-7.2-7.2c-4,0-7.2,3.2-7.2,7.2c0,0.5,0,0.9,0.1,1.4L42,51.1c0,0,0,0,0-0.1l-4.5-8.6c-0.1-0.2-0.2-0.4-0.3-0.5l-3.5-6.7
	c-0.2-0.4-0.4-0.7-0.7-1c1-1,1.5-2.2,1.5-3.6c0-0.8-0.4-1.6-1-2.1c0.1-2.1-0.1-5.5-2.4-8c-1.6-1.7-3.9-2.6-6.7-2.6l0,0L24.2,17.8
	L24.2,17.8L24.2,17.8L24.2,17.8z" />
</svg>
