<svg height="100px" width="100px" fill="#000000" xmlns="http://www.w3.org/2000/svg" xmlns:xlink="http://www.w3.org/1999/xlink" version="1.1" x="0px" y="0px" viewBox="0 0 109 109" enable-background="new 0 0 109 109" xml:space="preserve">
	<path d="M26.553,22.42c8.505,0,6.798,9.155,6.864,10.287c0.034,0.585,0.354,0.728,0.655,0.728c0.283,0,0.552-0.126,0.552-0.126  c0,3.537-6.358,3.745-7.851,3.745c-0.199,0-0.312-0.004-0.312-0.004H26.46c0,0-0.112,0.004-0.312,0.004  c-1.493,0-7.851-0.208-7.851-3.745c0,0,0.269,0.126,0.552,0.126c0.302,0,0.621-0.143,0.655-0.728  c0.066-1.132-1.643-10.288,6.864-10.287c0.029,0,0.062,0,0.092,0C26.492,22.42,26.522,22.42,26.553,22.42 M81.366,23.594  c3.372,0,6.104,2.733,6.104,6.105c0,3.371-2.732,6.105-6.104,6.105s-6.104-2.734-6.104-6.105  C75.264,26.327,77.994,23.594,81.366,23.594 M84.632,38.046c0.292,0,0.574,0.035,0.851,0.094c0.242-0.058,0.486-0.086,0.73-0.086  c1.15,0,2.26,0.626,2.819,1.723l3.895,7.477c0.081,0.118,0.167,0.232,0.234,0.364l4.864,9.339c0.797,1.561,0.175,3.47-1.385,4.266  c-0.461,0.234-0.953,0.346-1.438,0.346c-1.153,0-2.268-0.631-2.826-1.729l-3.738-7.175v5.826c0,0.244-0.029,0.482-0.072,0.717  c0.049,0.23,0.076,0.467,0.072,0.71l-0.002,11.12c-0.002,0.17-0.027,0.331-0.054,0.493c0.035,0.198,0.06,0.401,0.056,0.612  l-0.002,11.119c-0.016,1.842-1.514,3.319-3.349,3.319c-0.009,0-0.019,0-0.028,0c-1.849-0.017-3.335-1.528-3.318-3.378l0.002-11.12  c0.002-0.17,0.029-0.332,0.056-0.494c-0.035-0.198-0.058-0.401-0.058-0.61l0.002-8.48h-1.154l-0.002,8.539  c-0.001,0.17-0.028,0.331-0.055,0.492c0.035,0.199,0.06,0.402,0.058,0.613l-0.003,11.119c-0.016,1.842-1.514,3.319-3.348,3.319  c-0.01,0-0.021,0-0.029,0c-1.85-0.017-3.335-1.528-3.317-3.378l0.001-11.12c0.002-0.17,0.028-0.332,0.055-0.494  c-0.035-0.198-0.058-0.401-0.056-0.61l0.001-11.119c0.002-0.226,0.028-0.443,0.072-0.655c-0.042-0.231-0.072-0.47-0.072-0.714  v-5.829l-3.738,7.178c-0.56,1.097-1.666,1.724-2.817,1.724c-0.452,0-0.911-0.097-1.347-0.301l-3.418,1.115  c-0.07,0.033-0.14,0.068-0.217,0.093l-4.129,1.347v9.896c0,0.655-0.255,1.245-0.658,1.696l-0.002,2.71  c0,0.094-0.016,0.182-0.029,0.271c0.019,0.106,0.031,0.217,0.031,0.329l-0.002,6.056c-0.009,1.002-0.822,1.807-1.822,1.807  c-0.006,0-0.012,0-0.016,0c-1.008-0.009-1.817-0.831-1.808-1.84l0.002-6.053c0-0.092,0.016-0.18,0.028-0.268  c-0.019-0.107-0.031-0.221-0.03-0.335l0.001-1.832h-0.63v1.863c0,0.093-0.016,0.182-0.029,0.271c0.019,0.107,0.031,0.219,0.03,0.332  l-0.001,6.055c-0.008,1.002-0.823,1.807-1.822,1.807c-0.006,0-0.011,0-0.017,0c-1.006-0.009-1.814-0.831-1.807-1.84l0.003-6.053  c0-0.092,0.016-0.178,0.028-0.266c-0.02-0.109-0.032-0.222-0.031-0.337l0.001-2.681c-0.405-0.45-0.658-1.041-0.658-1.694V63.57  l-3.381-1.104c-0.076-0.023-0.146-0.06-0.216-0.093l-3.751-1.224c-0.037,0.021-0.068,0.05-0.107,0.068  c-0.462,0.235-0.953,0.348-1.438,0.348c-1.153,0-2.266-0.633-2.825-1.73l-3.738-7.175v0.21l4.774,17.542l0.021,0.077  c0.031,0.156,0.049,0.32,0.049,0.486c0,1.375-1.114,2.489-2.489,2.489h-2.354l-0.002,9.793c-0.016,1.841-1.514,3.319-3.349,3.319  c-0.009,0-0.019,0-0.028,0c-1.849-0.018-3.336-1.528-3.318-3.378l0.002-9.734h-0.577H26.46h-0.576l-0.003,9.793  c-0.016,1.841-1.513,3.319-3.348,3.319c-0.01,0-0.02,0-0.029,0c-1.849-0.018-3.335-1.528-3.318-3.378l0.002-9.734h-2.354  c-1.375,0-2.49-1.114-2.49-2.489c0-0.166,0.018-0.33,0.05-0.486l0.021-0.077l4.774-17.545v-0.21l-3.739,7.178  c-0.56,1.1-1.672,1.73-2.826,1.73c-0.484,0-0.977-0.111-1.438-0.348c-1.559-0.795-2.181-2.705-1.384-4.265l4.864-9.339  c0.066-0.132,0.153-0.246,0.234-0.364l3.895-7.477c0.56-1.097,1.668-1.723,2.82-1.723c0.243,0,0.489,0.028,0.732,0.086  c0.273-0.059,0.557-0.094,0.85-0.094h6.529c0.292,0,0.574,0.035,0.849,0.094c0.242-0.058,0.488-0.086,0.731-0.086  c1.151,0,2.261,0.626,2.819,1.723l3.896,7.477c0.082,0.118,0.166,0.232,0.233,0.364l4.865,9.339  c0.179,0.349,0.275,0.717,0.317,1.085l4.287,1.396c0.076,0.024,0.146,0.061,0.217,0.094l3.691,1.203c0.034,0,0.068-0.01,0.104-0.01  h4.147c0.216,0,0.423,0.035,0.622,0.086l3.922-1.279c0.07-0.033,0.139-0.068,0.217-0.094l3.727-1.215  c0.023-0.43,0.13-0.859,0.338-1.268l4.865-9.339c0.066-0.132,0.15-0.246,0.232-0.364l3.896-7.477  c0.56-1.097,1.669-1.723,2.819-1.723c0.244,0,0.489,0.028,0.732,0.086c0.273-0.059,0.557-0.094,0.85-0.094h6.53 M53.81,49.407  c2.674,0,4.844,2.166,4.844,4.844c0,2.675-2.17,4.845-4.844,4.845c-2.678,0-4.844-2.17-4.844-4.845  C48.966,51.573,51.132,49.407,53.81,49.407 M26.369,19.42c-3.086-0.001-5.538,0.95-7.293,2.826c-2.52,2.692-2.737,6.391-2.661,8.727  c-0.702,0.565-1.117,1.423-1.117,2.336c0,1.56,0.553,2.887,1.593,3.94c-0.295,0.354-0.554,0.742-0.77,1.164l-3.794,7.284  c-0.095,0.138-0.221,0.331-0.341,0.57L7.141,55.57c-0.762,1.488-0.895,3.162-0.385,4.73c0.51,1.567,1.598,2.844,3.065,3.592  c0.864,0.44,1.833,0.674,2.801,0.674c0.092,0,0.184-0.002,0.274-0.006l-1.378,5.064l-0.025,0.096  c-0.015,0.055-0.028,0.11-0.04,0.168c-0.073,0.358-0.11,0.726-0.11,1.09c0,2.809,2.12,5.131,4.845,5.451L16.186,83.2  c-0.031,3.475,2.791,6.348,6.291,6.379c0.01,0,0.047,0,0.057,0c1.475,0,2.838-0.511,3.919-1.362c1.101,0.87,2.45,1.35,3.876,1.362  c0.008,0,0.047,0,0.055,0c3.472,0,6.319-2.823,6.349-6.294l0.001-6.855c2.725-0.32,4.845-2.644,4.845-5.451  c0-0.356-0.036-0.718-0.106-1.072c-0.013-0.062-0.027-0.124-0.043-0.187l-0.021-0.077l-1.383-5.082  c0.091,0.004,0.182,0.006,0.272,0.006c0.557,0,1.113-0.076,1.65-0.227l2.547,0.831c0.109,0.049,0.244,0.103,0.399,0.152l1.297,0.423  v7.964c0,0.916,0.229,1.81,0.658,2.606l-0.001,1.768c-0.001,0.111,0.003,0.227,0.012,0.346c-0.006,0.079-0.009,0.165-0.009,0.258  l-0.003,6.052c-0.021,2.636,2.124,4.817,4.78,4.841c0.779,0,1.515-0.182,2.166-0.503c0.647,0.321,1.364,0.496,2.108,0.503  c2.681,0,4.844-2.146,4.863-4.783l0.002-6.077c0.002-0.116-0.002-0.229-0.011-0.334c0.005-0.083,0.009-0.173,0.009-0.269  l0.002-1.797c0.431-0.801,0.659-1.694,0.659-2.609v-7.72l2.06-0.671c0.15-0.049,0.283-0.104,0.39-0.149l2.319-0.757  c0.438,0.098,0.887,0.146,1.342,0.146c1.305,0,2.538-0.403,3.557-1.123l-0.001,7.539c-0.002,0.19,0.007,0.394,0.028,0.604  c-0.016,0.146-0.025,0.309-0.027,0.484l-0.001,11.137c-0.016,1.668,0.63,3.269,1.819,4.479c1.188,1.211,2.775,1.885,4.471,1.899  c0.01,0,0.047,0,0.057,0c1.477,0,2.84-0.511,3.922-1.364c1.066,0.842,2.41,1.352,3.873,1.364c0.009,0,0.048,0,0.056,0  c3.472,0,6.319-2.823,6.349-6.294l0.002-11.145c0.004-0.19-0.007-0.396-0.027-0.613c0.014-0.139,0.023-0.293,0.025-0.459  l0.002-7.627c1.02,0.719,2.256,1.125,3.564,1.125c0.968,0,1.938-0.233,2.802-0.676c1.468-0.748,2.556-2.022,3.063-3.591  c0.511-1.569,0.378-3.241-0.372-4.711l-4.875-9.359c-0.109-0.214-0.23-0.398-0.322-0.533l-3.808-7.308  c-0.7-1.373-1.877-2.404-3.276-2.935c1.284-1.57,2.056-3.575,2.056-5.757c0-5.021-4.084-9.105-9.104-9.105s-9.104,4.085-9.104,9.105  c0,2.182,0.771,4.187,2.057,5.757c-1.402,0.532-2.582,1.568-3.291,2.956l-3.795,7.287c-0.105,0.154-0.221,0.333-0.332,0.553  l-4.854,9.318c-0.052,0.1-0.1,0.201-0.146,0.303l-0.449,0.146c0.132-0.568,0.201-1.161,0.201-1.769c0-4.325-3.52-7.844-7.844-7.844  c-4.325,0-7.844,3.519-7.844,7.844c0,0.516,0.05,1.019,0.146,1.507l-0.283-0.093c-0.014-0.024-0.026-0.052-0.039-0.077l-4.875-9.356  c-0.108-0.213-0.226-0.395-0.321-0.534l-3.808-7.308c-0.21-0.412-0.463-0.794-0.753-1.141c1.039-1.055,1.592-2.381,1.592-3.94  c0-0.913-0.415-1.771-1.118-2.336c0.076-2.336-0.142-6.033-2.66-8.727c-1.756-1.875-4.209-2.826-7.293-2.826l0,0h-0.115h-0.07V19.42  L26.369,19.42z">
	</path>
</svg>
